<svg width="102" height="34" viewBox="0 0 102 34" fill="none" xmlns="http://www.w3.org/2000/svg">
<path d="M84.3499 0L101.22 29L84.3499 33.5L67.4799 29L84.3499 0Z" fill="#233554"/>
<path d="M84.3499 0L101.22 29L84.3499 21.75L67.4799 29L84.3499 0Z" fill="#64A2FF"/>
<path d="M61.6627 14.5C61.6627 23 57.0089 29 57.0089 29C47.3706 29 39.5572 22.5081 39.5572 14.5C39.5572 6.49187 47.3706 0 57.0089 0C57.0089 0 61.6627 6 61.6627 14.5Z" fill="#233554"/>
<path d="M51.7734 14.5C51.7734 23.5 57.0089 29 57.0089 29C47.3706 29 39.5572 22.5081 39.5572 14.5C39.5572 6.49187 47.3706 0 57.0089 0C57.0089 0 51.7734 5.5 51.7734 14.5Z" fill="#64A2FF"/>
<path d="M16.87 0L33.74 29L16.87 33.5L0 29L16.87 0Z" fill="#233554"/>
<path d="M16.87 0L33.74 29L16.87 24.65L0 29L16.87 0Z" fill="#64A2FF"/>
</svg>
