<?xml version="1.0" standalone="no"?>
<!DOCTYPE svg PUBLIC "-//W3C//DTD SVG 20010904//EN"
 "http://www.w3.org/TR/2001/REC-SVG-20010904/DTD/svg10.dtd">
<svg version="1.0" xmlns="http://www.w3.org/2000/svg"
 width="1024.000000pt" height="1024.000000pt" viewBox="0 0 1024.000000 1024.000000"
 preserveAspectRatio="xMidYMid meet">
<metadata>
Created by potrace 1.14, written by Peter Selinger 2001-2017
</metadata>
<g transform="translate(0.000000,1024.000000) scale(0.100000,-0.100000)"
fill="#000000" stroke="none">
<path d="M5099 10219 c-7 -13 -14 -26 -14 -29 -4 -16 -71 -146 -77 -148 -4 -2
-8 -9 -8 -15 0 -7 -21 -50 -45 -97 -25 -47 -47 -92 -51 -100 -3 -8 -10 -24
-16 -35 -15 -27 -19 -36 -70 -140 -23 -49 -46 -91 -50 -93 -5 -2 -8 -9 -8 -15
0 -11 -27 -68 -60 -127 -8 -14 -15 -27 -15 -30 -1 -3 -12 -25 -25 -50 -13 -25
-25 -47 -26 -50 -1 -3 -5 -15 -9 -27 -4 -13 -11 -23 -16 -23 -5 0 -9 -6 -9
-12 0 -16 -42 -102 -52 -106 -5 -2 -8 -9 -8 -15 0 -12 -40 -98 -50 -107 -3 -3
-14 -25 -25 -50 -10 -25 -25 -52 -32 -61 -7 -8 -13 -19 -13 -24 0 -12 -62
-135 -72 -141 -4 -3 -8 -13 -8 -22 0 -9 -9 -28 -20 -42 -11 -14 -20 -30 -20
-37 0 -6 -16 -39 -35 -72 -19 -34 -34 -62 -34 -64 2 -6 -37 -82 -43 -85 -5 -2
-8 -11 -8 -20 0 -9 -9 -28 -20 -42 -11 -14 -20 -29 -20 -34 0 -14 -84 -181
-92 -184 -5 -2 -8 -11 -8 -21 0 -9 -4 -21 -9 -27 -8 -9 -88 -165 -172 -339
-24 -49 -47 -91 -51 -93 -5 -2 -8 -9 -8 -15 0 -15 -63 -141 -72 -145 -5 -2 -8
-8 -8 -13 0 -13 -224 -463 -232 -467 -5 -2 -8 -8 -8 -13 0 -14 -84 -183 -92
-187 -5 -2 -8 -9 -8 -15 0 -7 -16 -41 -35 -77 -19 -36 -37 -72 -41 -80 -5 -14
-10 -24 -33 -67 -6 -10 -29 -58 -53 -108 -24 -49 -46 -91 -50 -93 -5 -2 -8 -9
-8 -15 0 -15 -63 -141 -72 -145 -5 -2 -8 -8 -8 -13 0 -13 -104 -224 -112 -227
-5 -2 -8 -8 -8 -12 0 -14 -104 -225 -112 -228 -5 -2 -8 -9 -8 -15 0 -15 -63
-141 -72 -145 -5 -2 -8 -8 -8 -13 0 -14 -124 -263 -132 -267 -5 -2 -8 -8 -8
-13 0 -13 -178 -371 -191 -384 -5 -5 -9 -17 -9 -27 0 -10 -5 -18 -11 -18 -5 0
-8 -4 -5 -9 3 -5 -1 -14 -9 -21 -8 -7 -15 -18 -15 -24 0 -6 -25 -58 -55 -116
-30 -58 -58 -112 -61 -120 -28 -64 -211 -426 -216 -428 -5 -2 -8 -8 -8 -13 0
-14 -84 -183 -92 -187 -5 -2 -8 -10 -8 -17 0 -8 -14 -38 -31 -67 -17 -29 -32
-55 -32 -58 0 -12 -62 -135 -69 -138 -4 -2 -8 -9 -8 -15 0 -7 -21 -50 -45 -97
-25 -47 -47 -92 -51 -100 -3 -8 -10 -23 -15 -33 -17 -31 -27 -52 -45 -92 -11
-22 -23 -43 -27 -46 -5 -3 -8 -9 -8 -13 1 -10 -73 -161 -81 -164 -5 -2 -8 -8
-8 -12 0 -14 -104 -225 -112 -228 -5 -2 -8 -8 -8 -13 0 -14 -84 -183 -92 -187
-5 -2 -8 -9 -8 -15 0 -15 -123 -261 -132 -265 -5 -2 -8 -9 -8 -15 0 -7 -21
-50 -45 -97 -25 -47 -47 -92 -51 -100 -3 -8 -10 -23 -15 -32 -17 -32 -27 -53
-45 -93 -11 -22 -23 -43 -27 -46 -5 -3 -9 -10 -9 -15 -1 -9 -83 -179 -108
-224 -8 -14 -15 -27 -15 -30 -3 -15 -71 -146 -77 -148 -5 -2 -8 -9 -8 -15 0
-15 -43 -101 -52 -105 -5 -2 -8 -11 -8 -21 0 -9 -5 -22 -10 -27 -8 -8 -6 -15
5 -24 8 -7 15 -9 15 -6 0 4 8 2 18 -3 11 -6 30 -12 43 -15 13 -3 38 -9 54 -14
111 -36 392 -124 400 -126 25 -6 134 -40 170 -53 22 -8 47 -16 56 -18 20 -4
218 -64 239 -72 8 -3 20 -7 25 -8 6 -2 83 -26 173 -54 90 -29 172 -53 183 -54
10 -1 19 -5 19 -9 0 -4 6 -8 13 -8 12 0 131 -34 167 -47 8 -3 20 -7 25 -8 6
-2 71 -22 145 -46 74 -24 137 -44 140 -44 3 -1 19 -5 35 -9 17 -4 39 -11 50
-16 11 -5 31 -12 45 -15 28 -8 247 -74 270 -83 8 -3 18 -6 23 -7 4 -2 9 -4 12
-5 3 -1 8 -3 13 -4 4 -1 16 -5 27 -8 11 -4 67 -21 125 -38 58 -18 147 -46 199
-62 51 -17 98 -31 105 -32 6 -1 17 -5 24 -9 6 -5 16 -5 22 -2 6 3 10 1 10 -4
0 -6 3 -10 8 -9 4 0 14 -1 22 -4 8 -3 53 -17 100 -31 47 -14 132 -40 190 -58
58 -19 108 -34 113 -35 4 -1 8 -2 10 -4 1 -1 9 -3 17 -5 8 -2 60 -18 115 -35
55 -17 105 -33 110 -34 6 -2 37 -11 70 -21 33 -11 63 -18 68 -17 4 1 7 -2 7
-6 0 -5 6 -9 13 -9 6 0 53 -12 102 -28 50 -16 95 -30 100 -31 6 -1 62 -19 125
-39 63 -20 122 -38 130 -40 8 -2 34 -10 58 -19 23 -8 42 -13 42 -9 0 3 7 -1
17 -8 9 -8 17 -13 17 -11 1 2 8 1 16 -2 20 -7 101 -29 119 -32 8 -1 35 4 60
13 25 8 51 17 56 18 6 1 17 5 25 8 13 5 112 36 315 97 33 10 98 30 145 45 47
16 91 28 98 28 6 0 12 4 12 9 0 5 5 6 10 3 6 -4 17 -1 25 5 8 7 15 9 15 5 0
-4 6 -3 13 3 6 6 15 11 20 11 4 1 8 1 10 2 1 0 10 2 19 4 20 4 87 24 108 33 8
3 20 7 25 7 6 1 17 5 25 8 20 7 152 49 165 51 10 2 111 34 406 127 86 27 163
49 172 49 9 0 18 4 21 9 3 5 23 12 43 17 42 8 41 8 63 17 19 7 92 30 105 33 6
1 48 14 95 29 47 15 92 29 100 30 8 2 16 4 18 5 1 2 5 3 10 5 4 1 14 4 22 7 8
3 49 16 90 28 41 12 129 39 195 60 134 43 323 102 343 107 26 7 37 10 52 16 8
3 69 22 135 42 66 20 129 39 140 43 11 3 22 6 25 7 10 2 185 57 200 62 21 8
43 14 58 15 6 1 12 4 12 8 0 4 6 7 13 8 20 1 49 9 117 32 36 12 76 24 89 27
14 2 29 7 35 11 6 3 16 7 21 8 13 2 254 77 326 101 30 9 57 16 62 15 4 -1 7 3
7 9 0 5 4 8 8 5 5 -3 65 13 133 35 68 23 132 42 143 45 10 2 21 6 24 9 3 3
-23 62 -58 133 -34 70 -61 127 -59 128 2 0 -1 7 -8 15 -7 8 -44 80 -83 159
-39 80 -75 152 -81 160 -15 25 -32 65 -31 73 1 4 -3 7 -10 7 -6 0 -8 3 -5 7 4
3 3 11 -2 17 -15 18 -181 352 -181 364 0 6 -3 12 -8 14 -4 2 -24 39 -45 83
-21 44 -42 87 -47 95 -12 20 -113 224 -115 230 0 3 -7 16 -15 30 -20 37 -174
344 -175 350 0 3 -4 11 -8 17 -20 31 -307 612 -307 621 0 6 -5 12 -11 14 -5 2
-11 10 -12 18 -2 8 -6 20 -10 27 -4 7 -37 72 -73 145 -36 73 -69 140 -74 148
-10 15 -42 81 -45 90 0 3 -8 19 -17 35 -57 107 -95 185 -91 185 4 0 -1 8 -9
18 -12 14 -110 207 -113 222 0 3 -7 16 -15 30 -39 71 -250 499 -250 508 0 6
-4 12 -8 14 -8 3 -69 128 -68 139 1 3 -4 12 -11 20 -6 8 -98 187 -203 399
-105 212 -195 392 -200 400 -24 44 -310 619 -310 624 0 4 -5 12 -10 19 -10 12
-234 457 -235 467 0 3 -4 10 -8 17 -19 30 -147 292 -147 301 0 6 -5 12 -11 14
-5 2 -11 10 -12 18 -2 8 -6 20 -10 27 -15 24 -141 278 -142 285 0 3 -4 10 -8
15 -9 9 -39 76 -37 82 1 2 -2 7 -7 10 -9 7 -173 334 -173 345 0 4 -5 12 -10
19 -12 14 -310 612 -310 621 0 4 -5 12 -10 19 -15 18 -230 453 -230 465 0 6
-5 12 -11 14 -5 2 -11 10 -12 18 -2 8 -6 21 -11 28 -4 7 -68 133 -141 279
-126 253 -133 265 -146 242z"/>
</g>
</svg>
